<svg id="圖層_1" data-name="圖層 1" xmlns="http://www.w3.org/2000/svg" viewBox="0 0 94.79 80.59"><defs><style>.cls-1{fill:#152c7d;}.cls-2{fill:#8fc326;}</style></defs><path class="cls-1" d="M75.3,44.17,53,30.4a11.06,11.06,0,0,0-11.6,0L19.15,44.17A11,11,0,0,1,2.31,34.78h0a11.05,11.05,0,0,1,5.24-9.4L41.43,4.45a11,11,0,0,1,11.6,0L86.91,25.38a11.05,11.05,0,0,1,5.24,9.4h0A11,11,0,0,1,75.3,44.17Z"/><path class="cls-2" d="M75.3,77.69,53,63.93a11,11,0,0,0-11.6,0L19.15,77.69A11,11,0,0,1,2.31,68.3h0a11,11,0,0,1,5.24-9.39L41.43,38A11.06,11.06,0,0,1,53,38L86.91,58.91a11,11,0,0,1,5.24,9.39h0A11,11,0,0,1,75.3,77.69Z"/></svg>